HIERARCHY
ROOT Hips
{
	OFFSET	0.000000	0.000000	0.000000
	CHANNELS	6	Xposition	Yposition	Zposition	Zrotation	Xrotation	Yrotation
	JOINT LeftHip
	{
		OFFSET	15.500000	-8.200000	0.000000
		CHANNELS	3	Zrotation	Xrotation	Yrotation
		JOINT LeftKnee
		{
			OFFSET	0.000000	-41.000000	0.000000
			CHANNELS	3	Zrotation	Xrotation	Yrotation
			JOINT LeftAnkle
			{
				OFFSET	0.000000	-41.500000	0.000000
				CHANNELS	3	Zrotation	Xrotation	Yrotation
				End Site
				{
					OFFSET	0.000000	0.000000	22.875000
				}
			}
		}
	}
	JOINT RightHip
	{
		OFFSET	-15.500000	-8.200000	0.000000
		CHANNELS	3	Zrotation	Xrotation	Yrotation
		JOINT RightKnee
		{
			OFFSET	0.000000	-41.000000	0.000000
			CHANNELS	3	Zrotation	Xrotation	Yrotation
			JOINT RightAnkle
			{
				OFFSET	0.000000	-41.500000	0.000000
				CHANNELS	3	Zrotation	Xrotation	Yrotation
				End Site
				{
					OFFSET	0.000000	0.000000	22.875000
				}
			}
		}
	}
	JOINT Chest
	{
		OFFSET	0.000000	16.666667	0.000000
		CHANNELS	3	Zrotation	Xrotation	Yrotation
		JOINT LeftCollar
		{
			OFFSET	4.625000	33.333333	1.541667
			CHANNELS	3	Zrotation	Xrotation	Yrotation
			JOINT LeftShoulder
			{
				OFFSET	13.875000	0.000000	0.000000
				CHANNELS	3	Zrotation	Xrotation	Yrotation
				JOINT LeftElbow
				{
					OFFSET	0.000000	-28.000000	0.000000
					CHANNELS	3	Zrotation	Xrotation	Yrotation
					JOINT LeftWrist
					{
						OFFSET	0.000000	-25.000000	0.000000
						CHANNELS	3	Zrotation	Xrotation	Yrotation
						End Site
						{
							OFFSET	0.000000	-7.500000	0.000000
						}
					}
				}
			}
		}
		JOINT RightCollar
		{
			OFFSET	-4.625000	33.333333	1.541667
			CHANNELS	3	Zrotation	Xrotation	Yrotation
			JOINT RightShoulder
			{
				OFFSET	-13.875000	0.000000	0.000000
				CHANNELS	3	Zrotation	Xrotation	Yrotation
				JOINT RightElbow
				{
					OFFSET	0.000000	-28.000000	0.000000
					CHANNELS	3	Zrotation	Xrotation	Yrotation
					JOINT RightWrist
					{
						OFFSET	0.000000	-25.000000	0.000000
						CHANNELS	3	Zrotation	Xrotation	Yrotation
						End Site
						{
							OFFSET	0.000000	-7.500000	0.000000
						}
					}
				}
			}
		}
		JOINT Neck
		{
			OFFSET	0.000000	33.333333	0.000000
			CHANNELS	3	Zrotation	Xrotation	Yrotation
			JOINT Head
			{
				OFFSET	0.000000	12.000000	0.000000
				CHANNELS	3	Zrotation	Xrotation	Yrotation
				End Site
				{
					OFFSET	0.000000	15.000000	0.000000
				}
			}
		}
	}
}
MOTION
Frames:	36
Frame Time:	0.012000
-27.91	101.53	735.18	-1.54	0.23	0.98	-13.47	-20.06	-9.85	0.00	39.21	0.00	-1.04	13.31	2.40	0.58	-16.65	-14.42	0.00	63.05	0.00	-14.44	13.31	14.83	-0.18	7.11	0.33	0.00	0.00	0.00	40.84	13.96	107.44	-74.04	70.96	21.02	-0.39	-2.27	0.00	0.00	0.00	0.00	-27.83	3.55	-112.38	111.24	55.18	-63.92	-3.10	0.24	0.00	0.00	0.00	0.00	-3.20	-2.44	3.73
-28.08	100.38	737.01	-1.46	0.38	0.05	-13.10	-19.02	-8.85	0.00	38.25	0.00	-0.06	17.71	1.73	0.36	-17.39	-13.28	0.00	59.38	0.00	-13.82	14.03	14.05	-0.25	7.08	0.07	0.00	0.00	0.00	40.36	13.20	108.03	-76.71	71.35	23.31	-0.44	-2.22	0.00	0.00	0.00	0.00	-28.31	4.41	-112.57	111.61	55.66	-64.35	-3.45	0.14	0.00	0.00	0.00	0.00	-3.41	-2.02	5.08
-28.47	99.53	738.96	-1.38	0.46	-0.94	-12.71	-18.12	-7.60	0.00	37.29	0.00	0.64	21.99	1.29	0.13	-17.93	-11.97	0.00	55.12	0.00	-12.94	14.79	13.13	-0.21	6.97	-0.10	0.00	0.00	0.00	40.06	12.54	108.50	-78.96	71.66	25.29	-0.51	-2.21	0.00	0.00	0.00	0.00	-28.66	5.12	-112.86	111.61	56.14	-64.64	-3.69	0.08	0.00	0.00	0.00	0.00	-3.74	-1.64	6.38
-28.61	98.95	740.79	-1.35	0.37	-1.97	-12.25	-16.86	-6.65	0.00	36.19	0.00	0.32	25.74	1.15	-0.12	-18.31	-10.72	0.00	50.47	0.00	-11.87	15.57	12.19	-0.10	6.88	-0.16	0.00	0.00	0.00	39.90	12.02	108.77	-80.74	71.75	26.98	-0.62	-2.22	0.00	0.00	0.00	0.00	-28.87	5.73	-113.17	111.41	56.51	-64.86	-3.84	0.04	0.00	0.00	0.00	0.00	-4.15	-1.15	7.54
-28.65	98.67	742.63	-1.31	0.16	-3.01	-11.77	-15.41	-5.95	0.00	35.09	0.00	-0.57	28.59	0.74	-0.35	-18.50	-9.66	0.00	45.51	0.00	-10.79	16.54	11.26	0.05	6.86	-0.19	0.00	0.00	0.00	39.82	11.64	108.90	-82.60	71.78	28.84	-0.78	-2.23	0.00	0.00	0.00	0.00	-29.01	6.28	-113.50	111.31	56.82	-65.17	-3.92	0.01	0.00	0.00	0.00	0.00	-4.70	-0.47	8.69
-28.77	98.70	744.34	-1.25	-0.08	-4.02	-11.25	-13.78	-5.39	0.00	34.03	0.00	-1.75	31.10	0.36	-0.52	-18.53	-8.80	0.00	40.41	0.00	-9.88	17.66	10.17	0.17	6.82	-0.36	0.00	0.00	0.00	39.59	11.39	109.05	-84.56	71.71	30.72	-0.94	-2.24	0.00	0.00	0.00	0.00	-29.26	6.73	-113.82	111.22	57.12	-65.53	-3.95	-0.01	0.00	0.00	0.00	0.00	-5.35	0.38	10.02
-29.08	99.03	746.18	-1.21	-0.21	-4.52	-10.75	-12.10	-5.07	0.00	33.16	0.00	-2.95	34.02	0.87	-0.73	-18.52	-8.14	0.00	35.27	0.00	-8.94	18.82	9.00	0.15	6.81	-0.73	0.00	0.00	0.00	39.09	11.28	109.42	-86.81	71.67	32.84	-1.09	-2.23	0.00	0.00	0.00	0.00	-29.83	7.09	-114.00	111.34	57.38	-66.02	-3.93	-0.02	0.00	0.00	0.00	0.00	-5.65	0.89	10.97
-29.62	99.57	748.69	-1.00	-0.44	-5.40	-10.30	-10.45	-5.01	0.00	32.73	0.00	-4.08	37.76	2.91	-1.03	-18.52	-7.66	0.00	30.33	0.00	-7.93	19.76	8.00	0.06	6.84	-1.19	0.00	0.00	0.00	38.48	11.31	109.92	-89.46	71.68	35.25	-1.22	-2.21	0.00	0.00	0.00	0.00	-30.57	7.37	-114.14	111.68	57.61	-66.61	-3.86	-0.04	0.00	0.00	0.00	0.00	-6.07	1.32	12.39
-30.63	100.33	751.74	-0.82	-0.52	-5.76	-9.96	-9.07	-5.03	0.00	33.12	0.00	-4.37	41.86	5.74	-1.40	-18.42	-7.36	0.00	25.54	0.00	-6.80	20.47	7.50	-0.01	6.89	-1.64	0.00	0.00	0.00	37.89	11.41	110.43	-92.30	71.63	37.83	-1.34	-2.20	0.00	0.00	0.00	0.00	-31.34	7.55	-114.27	112.02	57.90	-67.13	-3.72	-0.08	0.00	0.00	0.00	0.00	-6.44	1.65	13.28
-31.93	101.33	755.67	-0.44	-0.63	-6.46	-9.73	-8.01	-5.02	0.00	34.40	0.00	-4.01	44.93	7.92	-1.79	-18.23	-7.15	0.00	20.96	0.00	-5.92	21.06	7.43	-0.04	6.92	-2.00	0.00	0.00	0.00	37.39	11.56	110.94	-95.14	71.67	40.39	-1.47	-2.21	0.00	0.00	0.00	0.00	-32.01	7.62	-114.36	112.24	58.19	-67.44	-3.56	-0.12	0.00	0.00	0.00	0.00	-7.00	1.73	14.33
-33.90	102.47	760.27	0.04	-0.66	-7.03	-9.61	-7.28	-4.97	0.00	36.44	0.00	-3.64	45.60	8.97	-2.18	-17.87	-6.92	0.00	16.56	0.00	-5.53	21.80	7.56	0.01	6.95	-2.29	0.00	0.00	0.00	37.01	11.74	111.32	-97.88	71.72	42.87	-1.59	-2.20	0.00	0.00	0.00	0.00	-32.52	7.64	-114.46	112.38	58.56	-67.65	-3.41	-0.16	0.00	0.00	0.00	0.00	-7.81	1.76	15.23
-35.90	103.62	764.02	0.53	-0.69	-7.53	-9.57	-6.75	-4.91	0.00	38.89	0.00	-3.84	43.12	8.76	-2.57	-17.20	-6.61	0.00	11.97	0.00	-5.55	22.74	7.64	-0.02	6.95	-2.53	0.00	0.00	0.00	36.61	11.90	111.71	-100.21	71.91	45.02	-1.77	-2.20	0.00	0.00	0.00	0.00	-33.02	7.62	-114.43	112.32	58.91	-67.63	-3.28	-0.19	0.00	0.00	0.00	0.00	-8.54	1.82	16.03
-37.40	104.53	766.37	0.99	-0.82	-7.92	-9.55	-6.35	-4.70	0.00	41.65	0.00	-4.22	39.22	7.94	-2.91	-15.72	-6.38	0.00	6.39	0.00	-5.71	24.14	7.82	-0.09	6.92	-2.72	0.00	0.00	0.00	36.23	12.01	112.04	-102.23	72.26	46.94	-1.92	-2.18	0.00	0.00	0.00	0.00	-33.46	7.56	-114.32	112.04	59.25	-67.48	-3.18	-0.20	0.00	0.00	0.00	0.00	-9.01	1.82	16.57
-38.56	105.18	767.93	1.35	-1.15	-8.19	-9.52	-6.09	-4.18	0.00	44.58	0.00	-4.38	36.03	6.92	-3.15	-13.43	-6.43	0.00	0.00	0.00	-5.84	25.95	8.18	-0.17	6.87	-2.84	0.00	0.00	0.00	35.92	12.09	112.28	-103.59	72.65	48.34	-2.01	-2.16	0.00	0.00	0.00	0.00	-33.82	7.47	-114.15	111.42	59.61	-67.09	-3.10	-0.23	0.00	0.00	0.00	0.00	-9.77	2.20	17.20
-39.55	105.58	769.32	1.64	-1.59	-8.40	-9.42	-5.86	-3.24	0.00	47.43	0.00	-3.84	34.45	6.12	-3.66	-13.96	-6.73	0.00	0.00	0.00	-5.76	24.74	8.28	-0.25	6.77	-2.92	0.00	0.00	0.00	35.67	12.15	112.49	-104.36	73.09	49.31	-1.95	-2.12	0.00	0.00	0.00	0.00	-34.13	7.33	-113.88	110.36	59.98	-66.42	-3.02	-0.26	0.00	0.00	0.00	0.00	-10.32	2.71	17.69
-40.72	101.96	770.99	1.81	-2.18	-8.48	-9.27	-5.64	-2.06	0.00	50.07	0.00	-2.72	33.56	5.47	-4.01	-14.11	-6.93	0.00	0.00	0.00	-5.24	23.88	8.62	-0.33	6.63	-2.92	0.00	0.00	0.00	35.44	12.26	112.63	-104.43	73.49	49.61	-1.83	-2.07	0.00	0.00	0.00	0.00	-34.37	7.16	-113.54	108.83	60.30	-65.34	-2.97	-0.30	0.00	0.00	0.00	0.00	-10.56	3.37	17.89
-40.23	101.91	769.66	1.89	-2.85	-8.43	-9.12	-5.35	-0.87	0.00	52.44	0.00	-1.50	32.18	5.02	-4.20	-13.84	-7.10	0.00	0.00	0.00	-4.94	24.35	9.08	-0.34	6.49	-2.80	0.00	0.00	0.00	35.31	12.40	112.65	-103.87	73.85	49.43	-1.73	-2.03	0.00	0.00	0.00	0.00	-34.44	6.95	-113.18	107.01	60.54	-63.95	-2.92	-0.33	0.00	0.00	0.00	0.00	-10.85	4.18	18.01
-40.06	101.86	769.11	1.95	-3.31	-8.39	-9.00	-4.95	0.08	0.00	54.48	0.00	-0.61	29.94	4.95	-4.30	-13.14	-8.07	0.00	0.00	0.00	-3.53	27.33	8.58	-0.36	6.24	-2.56	0.00	0.00	0.00	35.20	12.45	112.61	-102.10	74.11	48.17	-1.71	-1.97	0.00	0.00	0.00	0.00	-34.42	6.64	-112.75	104.66	60.58	-62.04	-2.86	-0.36	0.00	0.00	0.00	0.00	-10.97	4.91	17.86
-40.74	102.88	770.49	1.95	-3.75	-8.27	-8.91	-4.45	0.67	0.00	56.16	0.00	-0.28	27.02	5.27	-4.14	-12.16	-8.62	0.00	0.00	0.00	-4.50	35.66	7.31	-0.24	5.76	-1.99	0.00	0.00	0.00	35.35	12.23	112.42	-98.27	74.31	45.14	-1.73	-1.87	0.00	0.00	0.00	0.00	-33.95	6.15	-112.39	101.20	60.28	-59.03	-2.72	-0.38	0.00	0.00	0.00	0.00	-11.13	5.94	17.34
-42.42	104.30	772.83	1.84	-4.09	-8.30	-8.88	-4.03	1.04	0.00	57.56	0.00	0.12	24.04	5.61	-3.83	-11.12	-9.27	0.00	0.00	0.00	-4.00	37.80	7.76	-0.10	5.13	-1.26	0.00	0.00	0.00	35.55	11.85	112.26	-92.72	74.50	40.56	-1.48	-1.76	0.00	0.00	0.00	0.00	-33.35	5.50	-112.09	97.02	59.68	-55.24	-2.56	-0.35	0.00	0.00	0.00	0.00	-11.06	6.64	17.21
-42.42	104.30	772.83	1.84	-4.09	-8.30	-8.88	-3.96	1.24	0.00	59.25	0.00	0.99	21.53	5.92	-3.28	-9.76	-8.37	0.00	0.00	0.00	-7.05	40.05	8.13	0.07	4.48	-0.61	0.00	0.00	0.00	35.65	11.40	112.21	-85.69	74.51	34.49	-0.85	-1.66	0.00	0.00	0.00	0.00	-32.87	4.71	-111.83	92.57	59.03	-51.21	-2.36	-0.24	0.00	0.00	0.00	0.00	-11.16	7.41	16.67
-44.75	106.22	776.75	0.90	-5.26	-8.43	-8.88	-3.71	1.38	0.00	59.96	0.00	2.50	20.82	5.99	-3.33	-13.62	-7.68	0.00	10.86	0.00	-7.70	30.07	8.51	0.24	3.89	-0.10	0.00	0.00	0.00	35.60	11.03	112.28	-77.67	74.18	27.42	0.07	-1.65	0.00	0.00	0.00	0.00	-32.61	3.76	-111.52	88.18	58.36	-47.27	-2.12	-0.09	0.00	0.00	0.00	0.00	-10.62	8.59	17.01
-43.99	106.86	776.40	-0.09	-5.77	-8.62	-9.03	-3.69	1.33	0.00	60.95	0.00	4.26	20.95	6.06	-2.88	-14.60	-6.72	0.00	16.07	0.00	-9.29	31.42	6.50	0.49	3.30	0.23	0.00	0.00	0.00	35.46	10.68	112.25	-69.25	73.09	19.84	1.06	-1.80	0.00	0.00	0.00	0.00	-32.43	2.58	-111.23	83.56	57.73	-43.36	-1.88	0.03	0.00	0.00	0.00	0.00	-10.48	9.89	17.48
-44.53	107.23	778.68	-1.11	-6.20	-8.89	-9.28	-3.83	1.06	0.00	61.85	0.00	5.56	21.48	6.26	-2.33	-15.30	-5.71	0.00	20.97	0.00	-9.02	29.57	6.15	0.85	2.78	0.50	0.00	0.00	0.00	35.33	10.44	112.01	-61.64	71.40	13.01	1.91	-2.09	0.00	0.00	0.00	0.00	-32.20	1.23	-110.96	79.04	57.03	-39.55	-1.67	0.05	0.00	0.00	0.00	0.00	-10.55	11.15	18.28
-44.17	107.43	781.04	-1.80	-6.46	-9.12	-9.60	-4.10	0.55	0.00	62.63	0.00	5.74	21.73	6.83	-1.84	-15.94	-5.11	0.00	25.82	0.00	-9.06	26.29	6.14	1.34	2.28	0.80	0.00	0.00	0.00	35.29	10.25	111.56	-55.36	69.11	7.67	2.50	-2.48	0.00	0.00	0.00	0.00	-31.76	-0.27	-110.77	74.81	56.26	-35.95	-1.44	0.00	0.00	0.00	0.00	0.00	-10.83	12.52	18.91
-44.23	108.03	783.45	-2.09	-6.69	-9.22	-9.94	-4.54	-0.08	0.00	63.25	0.00	4.93	20.95	7.24	-1.43	-16.55	-4.61	0.00	30.47	0.00	-8.91	21.08	6.49	1.82	1.76	1.08	0.00	0.00	0.00	35.20	10.04	111.09	-50.30	66.53	3.91	2.58	-2.88	0.00	0.00	0.00	0.00	-31.35	-1.91	-110.59	71.26	55.50	-32.88	-1.15	-0.04	0.00	0.00	0.00	0.00	-11.18	13.52	19.32
-44.57	108.51	785.44	-2.21	-6.93	-9.28	-10.21	-5.18	-0.65	0.00	63.65	0.00	3.61	19.09	7.22	-1.06	-16.97	-4.13	0.00	33.92	0.00	-7.95	17.45	6.23	2.19	1.27	1.31	0.00	0.00	0.00	34.98	9.86	110.70	-46.40	63.81	1.58	2.18	-3.30	0.00	0.00	0.00	0.00	-31.08	-3.61	-110.44	68.87	54.89	-30.78	-0.89	0.00	0.00	0.00	0.00	0.00	-11.17	14.50	19.20
-45.06	108.84	786.93	-2.21	-6.93	-9.28	-10.39	-6.06	-1.20	0.00	63.75	0.00	2.53	16.94	6.83	-0.65	-17.20	-3.53	0.00	36.69	0.00	-7.34	16.07	5.12	2.47	0.80	1.39	0.00	0.00	0.00	34.64	9.73	110.46	-43.77	61.24	0.60	1.48	-3.68	0.00	0.00	0.00	0.00	-31.07	-5.36	-110.46	67.55	54.66	-29.58	-0.78	0.10	0.00	0.00	0.00	0.00	-11.32	15.22	19.14
-46.02	108.54	788.82	-2.37	-7.14	-9.07	-10.49	-7.20	-1.69	0.00	63.52	0.00	1.67	15.52	6.57	-0.30	-17.25	-3.03	0.00	38.98	0.00	-7.47	15.48	4.29	2.86	0.33	1.43	0.00	0.00	0.00	34.51	9.69	110.10	-42.44	59.09	0.61	0.84	-3.94	0.00	0.00	0.00	0.00	-30.96	-7.17	-110.59	66.62	54.75	-28.84	-0.73	0.23	0.00	0.00	0.00	0.00	-11.30	16.43	18.86
-46.57	107.58	790.27	-2.37	-7.14	-9.07	-10.57	-8.53	-2.25	0.00	62.95	0.00	1.28	15.31	6.54	-0.31	-16.98	-3.11	0.00	40.37	0.00	-8.46	15.04	4.25	3.42	-0.13	1.55	0.00	0.00	0.00	34.64	9.78	109.45	-41.79	57.53	0.84	0.45	-4.03	0.00	0.00	0.00	0.00	-30.41	-8.98	-110.67	65.76	54.90	-28.28	-0.68	0.31	0.00	0.00	0.00	0.00	-11.83	16.91	18.84
-47.01	106.35	791.82	-2.46	-6.92	-8.98	-10.71	-10.02	-2.86	0.00	61.95	0.00	1.33	15.74	6.49	-0.42	-16.56	-3.32	0.00	40.84	0.00	-9.18	14.30	4.34	4.01	-0.44	1.66	0.00	0.00	0.00	34.91	10.20	108.62	-41.74	56.69	0.88	0.33	-4.00	0.00	0.00	0.00	0.00	-29.67	-10.57	-110.71	65.27	55.23	-28.19	-0.62	0.33	0.00	0.00	0.00	0.00	-12.34	17.29	18.70
-47.01	104.96	793.08	-2.61	-6.41	-8.79	-10.85	-11.69	-3.48	0.00	60.62	0.00	1.54	16.51	6.54	-0.54	-16.05	-3.28	0.00	40.72	0.00	-9.31	13.35	4.36	4.34	-0.54	1.84	0.00	0.00	0.00	34.97	11.02	108.17	-41.54	56.44	0.13	0.33	-3.89	0.00	0.00	0.00	0.00	-29.17	-11.79	-110.66	65.90	55.55	-28.84	-0.67	0.31	0.00	0.00	0.00	0.00	-12.69	17.37	18.36
-46.54	103.55	794.46	-2.67	-5.89	-8.66	-10.98	-13.55	-4.15	0.00	59.04	0.00	1.59	17.25	6.62	-0.62	-15.68	-3.17	0.00	40.33	0.00	-9.13	12.16	4.51	4.46	-0.54	1.97	0.00	0.00	0.00	34.85	12.06	108.19	-41.11	56.45	-1.11	0.38	-3.78	0.00	0.00	0.00	0.00	-28.84	-12.75	-110.70	67.43	55.96	-30.13	-0.85	0.27	0.00	0.00	0.00	0.00	-12.78	17.08	18.08
-46.10	102.23	795.41	-2.65	-5.39	-8.50	-11.11	-15.56	-4.82	0.00	57.16	0.00	1.33	18.26	6.85	-0.73	-15.29	-3.06	0.00	39.56	0.00	-9.09	10.93	4.92	4.21	-0.51	2.00	0.00	0.00	0.00	34.24	13.19	108.85	-40.11	56.45	-2.95	0.40	-3.68	0.00	0.00	0.00	0.00	-29.03	-13.53	-110.62	69.78	56.27	-32.12	-1.11	0.21	0.00	0.00	0.00	0.00	-12.60	16.64	17.85
-45.60	101.04	796.04	-2.59	-5.11	-8.27	-11.12	-17.52	-5.33	0.00	54.80	0.00	0.98	19.54	7.00	-0.88	-14.60	-2.79	0.00	38.29	0.00	-9.23	10.03	5.26	3.79	-0.55	2.00	0.00	0.00	0.00	33.36	14.24	109.76	-38.62	56.25	-5.13	0.41	-3.65	0.00	0.00	0.00	0.00	-29.38	-14.25	-110.24	72.30	56.35	-34.25	-1.38	0.13	0.00	0.00	0.00	0.00	-12.49	16.52	17.70
-45.03	100.02	796.36	-2.51	-4.91	-8.00	-11.00	-19.22	-5.64	0.00	51.94	0.00	0.53	21.08	7.05	-0.95	-13.61	-2.38	0.00	36.55	0.00	-9.37	9.64	5.39	3.40	-0.60	1.98	0.00	0.00	0.00	32.56	15.22	110.67	-37.10	55.93	-7.11	0.40	-3.64	0.00	0.00	0.00	0.00	-29.74	-15.03	-109.76	74.69	56.34	-36.35	-1.62	0.05	0.00	0.00	0.00	0.00	-12.43	16.48	17.55
